#!OML:ASF H:\Terrain\Walking\May29\JustinRory\rory.ASF
:FULLY-SPECIFIED
:DEGREES
1792
root 14.8677 17.914 -15.7655 -360.018 -38.7364 -0.0930734
lowerback 7.0088 2.05721 -0.0052658
upperback 4.35609 2.68597 0.468249
thorax 0.54222 1.3175 0.312256
lowerneck -6.81123 3.80469 2.64674
upperneck 9.73406 4.74991 0.485812
head 4.50287 2.45573 -0.0185774
rclavicle 1.05903e-013 -1.68967e-014
rhumerus -34.9358 1.64146 -77.3558
rradius 54.3516
rwrist 7.40248
rhand -11.5546 35.4223
rfingers 7.12502
rthumb 14.4861 5.94795
lclavicle 1.05903e-013 -1.68967e-014
lhumerus -44.4602 14.5305 70.5054
lradius 29.0108
lwrist -7.37862
lhand -13.5704 20.0606
lfingers 7.12502
lthumb 12.5433 49.6641
rfemur -4.74731 9.89524 23.7618
rtibia 27.6677
rfoot -17.7861 -6.57934
rtoes 9.22278
lfemur -28.1135 6.80443 -13.2755
ltibia 26.8725
lfoot -18.3499 18.6076
ltoes -7.10677
1793
root 14.9016 17.922 -15.8475 -360.02 -38.9514 -0.0201976
lowerback 6.99569 2.22411 0.0871889
upperback 4.31134 2.91328 0.302604
thorax 0.515365 1.43518 0.075727
lowerneck -6.77549 3.58325 3.26042
upperneck 9.68969 4.41611 0.198816
head 4.50288 2.29968 -0.24546
rclavicle 7.67806e-015 -9.54166e-015
rhumerus -35.4835 0.513445 -77.2687
rradius 54.1207
rwrist 7.42933
rhand -11.8271 34.4346
rfingers 7.12502
rthumb 14.2236 4.94165
lclavicle 7.67806e-015 -9.54166e-015
lhumerus -44.2743 14.2793 70.6065
lradius 28.6559
lwrist -8.28632
lhand -13.4268 19.9001
lfingers 7.12502
lthumb 12.6817 49.495
rfemur -5.2267 10.3118 23.745
rtibia 27.8643
rfoot -17.6695 -6.61273
rtoes 9.48471
lfemur -28.3133 7.99542 -13.7345
ltibia 28.1251
lfoot -17.4296 17.4664
ltoes -6.68392
1794
root 14.9307 17.9298 -15.9193 -360.316 -39.2073 0.216258
lowerback 7.05196 2.25595 -0.0696925
upperback 4.36685 2.94511 0.260766
thorax 0.535906 1.44813 0.117329
lowerneck -7.00367 3.53613 3.34347
upperneck 9.97924 4.34528 0.0817618
head 4.66031 2.26372 -0.29647
rclavicle 3.74709e-014 -5.96354e-016
rhumerus -35.7859 -0.255524 -77.0929
rradius 53.8294
rwrist 7.45744
rhand -11.5682 33.9248
rfingers 7.12502
rthumb 14.4731 4.44956
lclavicle 3.74709e-014 -5.96354e-016
lhumerus -44.3837 14.5798 70.4951
lradius 28.3648
lwrist -9.29316
lhand -13.2601 20.2325
lfingers 7.12502
lthumb 12.8425 49.8174
rfemur -5.39972 10.5962 23.6019
rtibia 27.9694
rfoot -17.5733 -6.5366
rtoes 9.57262
lfemur -28.273 9.19492 -14.2779
ltibia 29.4894
lfoot -16.6696 16.2623
ltoes -7.21803
1795
root 14.963 17.9333 -15.9925 -360.651 -39.1895 0.386854
lowerback 7.28869 2.12983 -0.218138
upperback 4.40223 2.76712 0.341277
thorax 0.431271 1.35476 0.285658
lowerneck -7.15147 3.57317 3.23409
upperneck 10.184 4.41605 -0.051128
head 4.76787 2.28841 -0.312386
rclavicle 4.77083e-015 -7.15625e-015
rhumerus -36.1215 -0.844645 -76.8052
rradius 53.4274
rwrist 7.60395
rhand -11.1476 33.7804
rfingers 7.12502
rthumb 14.8783 4.33462
lclavicle 4.77083e-015 -7.15625e-015
lhumerus -44.6602 14.8923 70.4074
lradius 28.3955
lwrist -9.45994
lhand -12.604 20.9969
lfingers 7.12502
lthumb 13.4749 50.541
rfemur -5.4924 10.4754 23.5053
rtibia 28.1359
rfoot -17.5042 -6.42731
rtoes 9.22795
lfemur -28.1578 10.0216 -14.7163
ltibia 30.888
lfoot -16.0527 14.884
ltoes -8.3414
1796
root 14.9996 17.95 -16.0159 -361.351 -39.6101 0.802257
lowerback 7.33893 2.16887 -0.0504538
upperback 4.56091 2.82493 0.185573
thorax 0.583204 1.38734 0.0304611
lowerneck -7.04901 3.57864 3.3825
upperneck 10.0736 4.43412 -0.260528
head 4.71772 2.29178 -0.411791
rclavicle -1.37658e-014 1.19271e-014
rhumerus -36.6302 -1.39978 -76.6056
rradius 53.0433
rwrist 7.56807
rhand -11.3688 33.6419
rfingers 7.12502
rthumb 14.6652 4.18053
lclavicle -1.37658e-014 1.19271e-014
lhumerus -44.7621 14.1688 70.6901
lradius 28.6375
lwrist -8.82007
lhand -12.3346 21.3524
lfingers 7.12502
lthumb 13.7346 50.8791
rfemur -5.33056 10.3099 22.9484
rtibia 28.3305
rfoot -17.6397 -5.72276
rtoes 8.949
lfemur -27.4938 9.66462 -15.1775
ltibia 32.3382
lfoot -16.5257 14.5627
ltoes -7.94692
1797
root 15.0271 17.9517 -16.0772 -361.712 -40.0409 1.42019
lowerback 7.18413 2.20032 -0.46891
upperback 4.59798 2.84233 0.0336975
thorax 0.69433 1.3892 0.114177
lowerneck -7.1912 3.66231 3.45768
upperneck 10.0351 4.54611 -0.376124
head 4.74142 2.34341 -0.454668
rclavicle -6.4605e-014 2.16675e-014
rhumerus -36.8962 -1.69791 -76.5245
rradius 52.6406
rwrist 7.38542
rhand -12.0743 33.5422
rfingers 7.12502
rthumb 13.9854 4.03262
lclavicle -6.4605e-014 2.16675e-014
lhumerus -44.5989 12.7261 71.1987
lradius 28.8188
lwrist -7.24841
lhand -12.9166 21.5071
lfingers 7.12502
lthumb 13.1735 51.0709
rfemur -5.7713 10.3279 22.3465
rtibia 28.5964
rfoot -17.684 -5.13153
rtoes 9.74198
lfemur -27.4901 10.4946 -15.8976
ltibia 33.8478
lfoot -16.1491 13.5763
ltoes -8.60433
1798
root 15.0601 17.9456 -16.1611 -361.497 -40.0983 1.42645
lowerback 7.02712 2.03224 -0.537155
upperback 4.54181 2.61771 0.0813809
thorax 0.718767 1.27539 0.220366
lowerneck -7.34744 3.73615 3.3571
upperneck 10.4436 4.66916 -0.515174
head 4.42326 2.39037 -0.423009
rclavicle 8.36883e-014 -1.53064e-014
rhumerus -36.9709 -2.08099 -76.338
rradius 52.0011
rwrist 7.48572
rhand -12.4359 33.6534
rfingers 7.12502
rthumb 13.637 4.12014
lclavicle 8.36883e-014 -1.53064e-014
lhumerus -44.0395 13.3378 70.8945
lradius 28.2436
lwrist -6.88689
lhand -12.7166 22.0246
lfingers 7.12502
lthumb 13.3664 51.5759
rfemur -6.40529 10.1939 22.3204
rtibia 28.7315
rfoot -17.4954 -4.86471
rtoes 10.0145
lfemur -27.9002 11.1051 -16.0375
ltibia 35.4047
lfoot -15.3189 12.5337
ltoes -9.14412
1799
root 15.0931 17.9415 -16.2706 -360.915 -39.8556 1.22129
lowerback 6.82557 1.87151 -0.629841
upperback 4.34123 2.40459 0.179441
thorax 0.616471 1.16815 0.388931
lowerneck -7.37985 3.72335 3.5804
upperneck 10.4205 4.6547 -0.778441
head 4.43295 2.37687 -0.539762
rclavicle -4.98453e-014 4.96962e-015
rhumerus -37.2748 -2.82287 -75.9821
rradius 51.4498
rwrist 7.10814
rhand -11.7306 33.9589
rfingers 7.12502
rthumb 14.3166 4.47249
lclavicle -4.98453e-014 4.96962e-015
lhumerus -44.565 14.5123 70.2914
lradius 28.5338
lwrist -7.60686
lhand -12.1591 21.9538
lfingers 7.12502
lthumb 13.9037 51.469
rfemur -7.34814 10.021 22.5708
rtibia 28.9631
rfoot -17.316 -5.07874
rtoes 7.65067
lfemur -28.7021 11.6182 -15.9408
ltibia 37.0034
lfoot -14.466 11.2332
ltoes -8.30485
1800
root 15.1264 17.9562 -16.2872 -361.176 -40.6026 1.1725
lowerback 6.52614 2.05971 -0.130952
upperback 4.54207 2.67991 0.0706504
thorax 1.01439 1.31546 -0.00181424
lowerneck -7.29881 3.71572 3.8224
upperneck 10.2752 4.63363 -0.907793
head 4.38345 2.36827 -0.622375
rclavicle 1.16041e-013 -2.26615e-014
rhumerus -37.7007 -3.67055 -75.583
rradius 51.0663
rwrist 6.01512
rhand -10.7548 34.3843
rfingers 7.12502
rthumb 15.2566 4.96694
lclavicle 1.16041e-013 -2.26615e-014
lhumerus -44.5538 14.305 70.3016
lradius 28.6857
lwrist -7.43237
lhand -12.1887 21.4694
lfingers 7.12502
lthumb 13.8752 50.9865
rfemur -7.36736 10.0351 22.4296
rtibia 29.1509
rfoot -17.4968 -4.48278
rtoes 5.38383
lfemur -28.0762 11.4789 -15.8734
ltibia 38.6016
lfoot -15.1168 10.8696
ltoes -7.36481
1801
root 15.1626 17.9438 -16.352 -361.188 -40.8745 0.990515
lowerback 6.64442 2.07476 -0.0159922
upperback 4.63193 2.70281 0.163831
thorax 1.0427 1.32718 0.0258532
lowerneck -7.38602 3.77581 3.69875
upperneck 9.78749 4.70986 -0.784644
head 4.71609 2.41057 -0.624127
rclavicle 1.41634e-014 2.98177e-015
rhumerus -38.1717 -4.29697 -75.2397
rradius 51.1156
rwrist 5.17633
rhand -10.4697 33.9189
rfingers 7.12502
rthumb 15.5313 4.52263
lclavicle 1.41634e-014 2.98177e-015
lhumerus -44.2316 14.108 70.4546
lradius 28.6155
lwrist -7.63356
lhand -11.3789 21.229
lfingers 7.12502
lthumb 14.6555 50.6911
rfemur -7.62076 9.90024 22.5829
rtibia 29.3742
rfoot -17.5029 -4.23088
rtoes 7.47445
lfemur -27.7615 12.044 -15.7893
ltibia 40.1393
lfoot -14.7816 9.57212
ltoes -9.02951
1802
root 15.1994 17.9324 -16.4352 -361.052 -40.9074 1.03081
lowerback 6.65483 1.8738 -0.237307
upperback 4.624 2.42399 0.315054
thorax 1.013 1.18057 0.319581
lowerneck -7.51897 3.965 3.31936
upperneck 9.57274 5.01152 -0.839426
head 4.66037 2.54087 -0.554291
rclavicle 7.69794e-014 -1.27222e-014
rhumerus -38.5738 -4.46612 -74.9396
rradius 51.2835
rwrist 4.83643
rhand -10.4968 33.3245
rfingers 7.12502
rthumb 15.5052 3.92623
lclavicle 7.69794e-014 -1.27222e-014
lhumerus -44.0859 14.9064 70.2263
lradius 28.3924
lwrist -8.44807
lhand -10.5498 21.2253
lfingers 7.12502
lthumb 15.4541 50.6275
rfemur -8.22554 10.202 22.6168
rtibia 29.6535
rfoot -17.3994 -4.70648
rtoes 9.27749
lfemur -27.8342 12.3326 -15.8609
ltibia 41.5935
lfoot -14.4387 8.22063
ltoes -9.93652
